<svg width="381" height="253" viewBox="0 0 381 253" fill="none" xmlns="http://www.w3.org/2000/svg">
<path fill-rule="evenodd" clip-rule="evenodd" d="M360.76 239.128L367.008 234.916L308.278 206.42C302.475 203.583 296.676 200.736 290.883 197.879C285.297 195.113 279.343 192.078 273.644 188.625C267.885 185.111 262.526 180.98 257.662 176.306C253.015 171.838 248.378 166.606 243.484 160.316C240.647 156.67 237.802 152.883 235.049 149.22C233.424 147.053 231.792 144.89 230.155 142.732C225.242 136.265 220.678 131.006 216.205 126.652C214.479 124.973 212.669 123.383 210.78 121.89C210.656 121.793 210.535 121.69 210.411 121.593C210.229 121.451 210.045 121.322 209.862 121.183C207.461 119.346 204.924 117.694 202.272 116.243C201.857 116.019 201.439 115.811 201.022 115.599C200.766 115.469 200.512 115.33 200.255 115.205L200.171 115.164C194.578 112.451 188.189 110.608 181.184 109.684C178.747 109.366 176.3 109.127 173.848 108.967C173.444 108.942 173.026 108.923 172.616 108.898C172.156 108.872 171.703 108.842 171.234 108.82C170.791 108.8 170.333 108.786 169.881 108.77C169.431 108.752 168.986 108.731 168.526 108.718C168.024 108.704 167.505 108.696 166.992 108.686C166.568 108.678 166.152 108.666 165.722 108.659C165.223 108.654 164.705 108.655 164.196 108.652C163.736 108.652 163.285 108.645 162.816 108.647C161.83 108.65 160.827 108.659 159.806 108.677C159.523 108.683 159.238 108.69 158.956 108.694C156.688 108.737 154.418 108.784 152.146 108.836C147.394 108.94 142.483 109.049 137.685 109.071H137.572C137.152 109.073 136.745 109.069 136.331 109.068C132.78 109.062 129.415 108.968 126.219 108.769C125.572 108.729 124.938 108.682 124.305 108.634C124.065 108.616 123.819 108.602 123.581 108.583C120.974 108.373 118.472 108.093 116.054 107.746C109.31 106.768 102.693 105.056 96.3209 102.641C90.4159 100.391 84.794 97.829 78.168 94.676C72.2625 91.8554 66.3615 89.0254 60.465 86.186L3.11792 58.361L3.64197 65.859L59.3679 92.889C64.6779 95.441 69.988 97.996 75.314 100.535C80.968 103.23 87.0569 106.07 93.2689 108.577C99.5409 111.087 105.942 112.986 112.29 114.222C118.62 115.444 125.41 116.173 133.052 116.452C139.03 116.666 145.204 116.71 151.173 116.752L154.888 116.78C163.151 116.847 170.171 117.32 176.348 118.23C183.511 119.28 190.075 121.238 195.859 124.044L195.968 124.097C201.711 126.898 207.265 130.814 212.478 135.738C217.001 140.011 221.694 145.203 226.826 151.611L229.348 154.766C232.976 159.306 236.726 164.003 240.481 168.449C245.377 174.249 250.096 179.107 254.906 183.305C257.357 185.435 259.907 187.446 262.55 189.333C264.736 190.893 267.014 192.363 269.342 193.772C269.858 194.084 270.359 194.412 270.882 194.716C276.602 198.023 282.517 201.014 288.055 203.752C293.586 206.482 299.115 209.19 304.629 211.89L305.439 212.288L309.795 214.401L360.76 239.128V239.128ZM352.6 244.635L358.847 240.424L304.565 214.087L304.561 214.085L303.746 213.685C298.23 210.983 292.701 208.275 287.166 205.544C281.622 202.805 275.691 199.807 269.874 196.444C269.51 196.232 269.154 196.012 268.792 195.797C266.258 194.284 263.786 192.67 261.382 190.957C258.687 189.034 256.086 186.984 253.588 184.812C248.698 180.542 243.911 175.612 238.95 169.739C235.18 165.275 231.423 160.571 227.791 156.024L225.261 152.859C220.198 146.535 215.567 141.41 211.102 137.189C210.473 136.595 209.834 136.012 209.186 135.439C204.821 131.589 200.236 128.467 195.526 126.119C195.346 126.029 195.168 125.931 194.988 125.844C189.388 123.129 183.02 121.234 176.06 120.21C169.975 119.315 163.045 118.848 154.874 118.781L151.209 118.755C145.209 118.712 139.006 118.668 132.983 118.451C125.238 118.171 118.346 117.431 111.913 116.187C105.437 114.926 98.916 112.99 92.527 110.434C90.9627 109.802 89.4059 109.151 87.8569 108.482C83.3959 106.56 79.055 104.529 74.931 102.566C74.775 102.492 74.6109 102.416 74.4559 102.341C69.2529 99.859 64.063 97.365 58.879 94.874L58.4149 94.65C58.0869 94.492 57.757 94.335 57.431 94.176L56.702 93.826L50.882 91.004L50.752 90.94L27.042 79.436L3.81299 68.164L4.33704 75.664L39.578 92.764L54.387 99.947L59.4969 102.405C61.9339 103.575 64.3739 104.747 66.8149 105.916C68.4069 106.678 69.9989 107.444 71.5919 108.204C77.2019 110.88 83.254 113.723 89.505 116.374C95.852 119.056 101.983 121.114 108.246 122.667C114.544 124.215 121.348 125.341 128.469 126.009C135.564 126.675 142.785 127.045 149.77 127.403C158.098 127.833 164.799 128.525 170.858 129.584C177.922 130.82 184.433 132.866 190.209 135.664L190.342 135.729C196.07 138.523 201.652 142.337 206.939 147.069C211.524 151.173 216.193 155.983 221.632 162.207C226.234 167.473 230.992 172.92 235.79 177.981C240.677 183.134 245.713 187.761 250.76 191.729C255.724 195.619 261.214 199.246 267.077 202.505C267.369 202.666 267.662 202.825 267.954 202.985C269.662 203.919 271.379 204.837 273.104 205.74C273.502 205.95 273.901 206.156 274.299 206.363C275.615 207.045 276.934 207.721 278.256 208.39C280.277 209.41 282.302 210.42 284.332 211.421C290.131 214.281 295.925 217.115 301.702 219.942L352.6 244.635V244.635ZM344.432 250.145L350.679 245.932L300.841 221.751C295.037 218.916 289.237 216.071 283.443 213.216C281.406 212.211 279.374 211.196 277.347 210.171L277.114 210.053C275.861 209.418 274.61 208.778 273.363 208.131L272.175 207.511C270.438 206.604 268.71 205.679 266.991 204.738C266.695 204.576 266.4 204.422 266.103 204.258C260.143 200.943 254.563 197.258 249.52 193.304C244.399 189.276 239.29 184.585 234.336 179.359C229.509 174.269 224.737 168.807 220.122 163.525C214.739 157.364 210.125 152.61 205.602 148.562C200.411 143.918 194.91 140.172 189.334 137.467C183.724 134.749 177.391 132.761 170.511 131.557C164.53 130.511 157.905 129.827 149.663 129.404C142.648 129.044 135.393 128.671 128.278 128.002C121.053 127.325 114.151 126.183 107.763 124.611C101.401 123.035 95.1719 120.944 88.7209 118.219C82.4019 115.537 76.3379 112.689 70.7269 110.012C65.3509 107.444 59.989 104.865 54.632 102.289L52.983 101.495L4.48901 77.965L5.01294 85.465L67.84 115.948L71.412 117.607C76.095 119.783 80.9379 122.035 85.7429 124.167C92.1589 126.996 98.206 129.248 104.229 131.054C110.413 132.896 117.036 134.408 123.911 135.55C130.814 136.686 137.913 137.525 144.555 138.263C152.783 139.177 159.323 140.185 165.141 141.435C172.081 142.926 178.517 145.095 184.271 147.884L184.405 147.949C190.11 150.732 195.743 154.412 201.153 158.889C205.746 162.691 210.563 167.184 216.311 173.026C221.741 178.538 226.333 183.106 231.102 187.479C236.202 192.149 241.432 196.391 246.644 200.089C251.727 203.686 257.167 207.025 263.279 210.292C269.513 213.602 275.815 216.734 280.607 219.095C286.102 221.8 291.593 224.485 297.069 227.163L297.999 227.618L344.432 250.145V250.145ZM64.132 78.505L2.44299 48.572L2.96497 56.058L61.2999 84.362C67.2043 87.2093 73.1144 90.045 79.03 92.869C85.628 96.011 91.2139 98.555 97.0339 100.771C103.27 103.134 109.745 104.809 116.344 105.766C122.691 106.68 129.633 107.106 137.564 107.071C137.881 107.071 138.204 107.063 138.521 107.061C140.621 107.047 142.734 107.024 144.851 106.986C145.614 106.972 146.364 106.954 147.126 106.938C148.807 106.904 150.493 106.871 152.146 106.834C154.69 106.778 157.233 106.721 159.77 106.678C168.05 106.534 175.142 106.868 181.449 107.702C188.666 108.652 195.26 110.558 201.049 113.365L201.161 113.42C206.907 116.222 212.439 120.19 217.602 125.218C222.149 129.642 226.776 134.975 231.751 141.522C233.367 143.648 234.974 145.788 236.581 147.927C239.353 151.613 242.217 155.424 245.066 159.088C249.906 165.311 254.481 170.471 259.051 174.865C263.811 179.437 269.053 183.478 274.687 186.916C280.33 190.338 286.234 193.346 291.774 196.086C297.557 198.938 303.344 201.78 309.137 204.611L368.928 233.622L375.169 229.412L311.994 198.761L311.18 198.363C305.664 195.661 300.134 192.953 294.598 190.223C289.018 187.465 283.075 184.418 277.405 180.823C271.787 177.236 266.504 172.889 261.701 167.899C257.238 163.261 252.708 157.819 247.855 151.263C245.828 148.518 243.813 145.764 241.81 143.002C239.463 139.762 237.097 136.535 234.713 133.322C229.905 126.862 225.363 121.565 220.827 117.128C215.822 112.231 210.47 108.378 204.919 105.67L204.81 105.617C199.217 102.904 192.825 101.069 185.812 100.162C179.517 99.347 172.505 99.058 164.378 99.279C160.53 99.381 156.664 99.527 152.798 99.672C149.188 99.808 145.574 99.944 141.98 100.046C133.76 100.278 126.622 100.062 120.154 99.386C113.239 98.661 106.497 97.142 100.114 94.87C94.2 92.737 88.5509 90.187 81.8879 87.014H81.887C77.28 84.816 72.684 82.609 68.09 80.404L64.132 78.504V78.505ZM6.04199 40.852L2.07397 43.528L2.26404 46.25L65.8309 77.088C71.4609 79.796 77.101 82.508 82.754 85.205C89.342 88.345 94.931 90.868 100.796 92.983C107.016 95.2 113.602 96.683 120.369 97.393C126.747 98.06 133.799 98.273 141.929 98.043C145.517 97.941 149.123 97.807 152.729 97.671C156.603 97.525 160.476 97.379 164.33 97.275C172.562 97.053 179.676 97.347 186.074 98.176C193.297 99.109 199.896 101.006 205.689 103.813L205.788 103.861C211.538 106.666 217.069 110.647 222.232 115.695C226.837 120.199 231.446 125.574 236.325 132.125C238.709 135.325 241.105 138.621 243.425 141.809C245.435 144.573 247.445 147.339 249.469 150.071C254.278 156.564 258.751 161.941 263.149 166.509C267.842 171.385 273.003 175.632 278.486 179.132C284.046 182.659 289.945 185.683 295.49 188.426C301.282 191.278 307.078 194.123 312.877 196.96L377.093 228.115L378.538 227.14L378.135 221.383L315.71 191.095L314.303 190.406C308.983 187.804 303.648 185.196 298.313 182.563C292.695 179.789 286.73 176.717 281.158 173.041C275.716 169.423 270.508 164.918 265.677 159.651C261.368 154.95 256.897 149.397 252.013 142.673C250.744 140.926 249.479 139.173 248.213 137.418C245.18 133.212 242.043 128.864 238.907 124.688C234.117 118.306 229.554 113.054 224.957 108.632C219.926 103.794 214.558 99.967 209.001 97.257L208.889 97.202C203.288 94.486 196.907 92.621 189.926 91.66C183.582 90.788 176.594 90.454 168.56 90.641C163.478 90.761 158.258 90.976 153.21 91.186C150.854 91.284 148.498 91.381 146.146 91.47C137.78 91.784 130.589 91.687 124.161 91.173C116.984 90.6 110.164 89.235 103.889 87.114C97.29 84.866 90.985 81.932 85.595 79.359C80.698 77.02 75.815 74.672 70.938 72.325L67.8519 70.841L6.04199 40.852V40.852ZM14.22 35.346L7.974 39.558L71.51 70.375C76.4917 72.7736 81.4763 75.1659 86.464 77.552H86.463C91.803 80.101 98.046 83.005 104.541 85.217C110.656 87.285 117.314 88.617 124.328 89.178C130.679 89.686 137.794 89.782 146.078 89.468C148.424 89.38 150.774 89.283 153.123 89.186C158.183 88.976 163.417 88.758 168.523 88.639C176.666 88.449 183.759 88.789 190.206 89.675C197.396 90.666 203.978 92.592 209.77 95.4L209.894 95.46C215.64 98.263 221.176 102.207 226.351 107.187C231.022 111.682 235.655 117.013 240.514 123.482C243.658 127.67 246.797 132.021 249.83 136.228C251.1 137.987 252.369 139.745 253.64 141.495C258.476 148.152 262.898 153.648 267.158 158.295C271.878 163.445 276.964 167.845 282.271 171.372C287.757 174.992 293.651 178.026 299.205 180.766C304.991 183.615 310.781 186.454 316.575 189.285L377.98 219.079L377.457 211.58L319.437 183.43C313.632 180.597 307.831 177.755 302.034 174.906C295.494 171.686 290.08 168.82 284.91 165.292C279.594 161.652 274.432 157.056 269.566 151.632C269.323 151.36 269.077 151.078 268.834 150.802C264.808 146.254 260.69 141.076 255.945 134.586L254.197 132.192C250.474 127.092 246.625 121.821 242.752 116.809C237.946 110.591 233.332 105.444 228.648 101.076C223.588 96.357 218.194 92.585 212.609 89.861L212.489 89.802C206.861 87.075 200.504 85.154 193.59 84.092C187.233 83.118 180.297 82.68 172.385 82.756C166.182 82.816 159.789 83.044 153.607 83.264L150.076 83.389C141.488 83.687 134.494 83.619 128.063 83.178C120.74 82.674 113.877 81.401 107.661 79.394C101.111 77.26 95.0079 74.424 89.3209 71.704C83.4033 68.8706 77.49 66.0283 71.5809 63.177L14.2209 35.346H14.22ZM22.376 29.833L16.132 34.047L72.447 61.372C78.347 64.216 84.2559 67.062 90.1799 69.896C95.8099 72.589 101.844 75.394 108.276 77.488C114.34 79.445 121.042 80.687 128.197 81.178C134.578 81.617 141.507 81.684 150.003 81.387L153.533 81.262C159.728 81.041 166.135 80.812 172.363 80.752C180.385 80.676 187.426 81.121 193.891 82.112C201.001 83.205 207.551 85.185 213.359 87.999L213.483 88.059C219.243 90.869 224.804 94.755 230.009 99.61C234.777 104.054 239.462 109.28 244.332 115.583L244.335 115.586C248.226 120.62 252.083 125.905 255.814 131.016L257.562 133.408C262.321 139.916 266.443 145.094 270.479 149.642C270.669 149.858 270.861 150.079 271.052 150.292C275.803 155.59 280.844 160.08 286.037 163.637C291.109 167.099 296.453 169.927 302.916 173.109C308.725 175.967 314.526 178.802 320.31 181.629L377.293 209.276L376.769 201.782L323.153 175.767L322.121 175.263C316.66 172.599 311.202 169.929 305.747 167.253C300.431 164.643 294.286 161.529 288.631 157.599C283.381 153.951 278.233 149.336 273.326 143.879C269.126 139.205 264.777 133.842 259.64 126.999C255.31 121.232 250.832 115.269 246.263 109.609C241.413 103.599 236.73 98.596 231.945 94.31C226.799 89.7 221.287 85.96 215.669 83.234C210.013 80.492 203.681 78.499 196.853 77.31C190.501 76.205 183.634 75.624 175.861 75.536C168.771 75.454 161.437 75.616 154.343 75.773L153.747 75.786C145.114 75.979 138.147 75.863 131.821 75.422C124.425 74.906 117.552 73.656 111.394 71.705C104.774 69.61 98.525 66.685 93.011 64.104L22.376 29.834V29.833ZM30.548 24.329L24.302 28.539L93.87 62.294C99.323 64.844 105.518 67.744 111.998 69.795C118.017 71.699 124.733 72.92 131.959 73.423C138.223 73.859 145.132 73.973 153.703 73.783L154.299 73.77C161.409 73.613 168.759 73.45 175.884 73.532C183.765 73.622 190.737 74.212 197.196 75.335C204.208 76.556 210.716 78.607 216.542 81.429C222.329 84.262 227.995 88.081 233.28 92.816C238.145 97.173 242.901 102.254 247.818 108.349C252.38 113.996 256.875 119.981 261.222 125.77C266.356 132.608 270.67 137.927 274.813 142.535C279.62 147.883 284.654 152.396 289.772 155.951C295.302 159.795 301.372 162.871 306.629 165.454C312.437 168.305 318.239 171.137 324.023 173.961L376.608 199.475L376.083 191.979L309.443 159.648C303.247 156.549 297.691 153.688 292.333 149.976C287.116 146.363 281.948 141.791 276.974 136.386C275.469 134.745 273.991 133.08 272.54 131.391C269.742 128.139 266.754 124.481 263.41 120.219C263.314 120.095 263.222 119.981 263.125 119.858C263.02 119.722 262.909 119.582 262.803 119.448C261.794 118.159 260.789 116.876 259.783 115.602C259.013 114.627 258.227 113.645 257.444 112.663C257.112 112.247 256.781 111.826 256.448 111.411C254.174 108.568 251.859 105.758 249.504 102.981C244.58 97.194 239.818 92.354 234.944 88.178C229.747 83.727 224.254 80.096 218.54 77.313C212.857 74.559 206.557 72.488 199.814 71.161C193.496 69.915 186.708 69.173 179.062 68.887C171.954 68.622 164.666 68.614 157.202 68.628C148.527 68.645 141.615 68.42 135.45 67.921C128.069 67.324 121.22 66.034 115.094 64.084C108.487 61.982 102.24 59.038 96.728 56.441L30.548 24.329V24.329ZM38.703 18.819L32.46 23.029L97.5859 54.629C103.028 57.196 109.206 60.109 115.696 62.175C121.675 64.076 128.375 65.338 135.61 65.923C141.719 66.418 148.577 66.64 157.195 66.624C164.681 66.609 171.99 66.618 179.133 66.886C186.89 67.174 193.779 67.929 200.197 69.193C207.107 70.556 213.572 72.68 219.41 75.51L219.56 75.582C225.346 78.405 230.958 82.13 236.242 86.656C241.199 90.901 246.035 95.816 251.025 101.681C251.642 102.407 252.255 103.154 252.872 103.891C256.89 108.705 260.82 113.671 264.532 118.411L264.698 118.621C264.801 118.752 264.9 118.875 265.001 119.007C267.457 122.146 269.967 125.242 272.53 128.294C274.453 130.581 276.424 132.826 278.444 135.027C283.315 140.322 288.37 144.797 293.468 148.329C298.709 151.959 304.203 154.788 310.324 157.85L375.92 189.675L375.396 182.178L313.162 151.985C307.208 149.027 301.423 146.073 296.013 142.412C290.717 138.829 285.648 134.483 280.515 129.129C276.307 124.736 271.963 119.791 266.43 113.095C261.325 106.917 257.007 101.782 252.523 96.809C247.512 91.251 242.664 86.578 237.706 82.522C232.504 78.265 226.998 74.707 221.336 71.945L221.176 71.867C215.458 69.097 209.187 66.949 202.536 65.485C196.259 64.1 189.551 63.186 182.033 62.69C174.671 62.204 167.04 61.995 160.467 61.837C151.723 61.627 145.091 61.256 138.961 60.637C131.523 59.885 124.913 58.534 118.756 56.507C112.21 54.35 105.959 51.387 100.445 48.775L38.703 18.819V18.819ZM46.8729 13.317L40.63 17.527L101.305 46.965C106.753 49.549 112.936 52.481 119.38 54.604C125.402 56.586 131.872 57.908 139.16 58.644C145.215 59.256 151.8 59.624 160.512 59.834C167.118 59.993 174.782 60.202 182.162 60.691C189.782 61.193 196.586 62.121 202.963 63.527C209.769 65.027 216.188 67.226 222.045 70.064L222.21 70.144C228.012 72.974 233.65 76.616 238.97 80.97C244.007 85.091 248.925 89.833 254.006 95.466C256.021 97.7033 258.005 99.9679 259.958 102.259C260.224 102.569 260.488 102.874 260.754 103.188C260.864 103.317 260.975 103.45 261.085 103.578C263.398 106.309 265.693 109.056 267.97 111.818C273.47 118.475 277.785 123.386 281.957 127.741C286.91 132.909 292.016 137.287 297.131 140.752C302.427 144.338 308.151 147.26 314.041 150.186L375.237 179.876L374.712 172.38L316.88 144.32C311.303 141.57 305.38 138.6 299.597 135.154C294.043 131.219 288.818 126.839 283.973 122.058C281.709 119.818 279.492 117.531 277.325 115.198C277.063 114.918 276.79 114.619 276.523 114.331C276.19 113.971 275.863 113.619 275.52 113.246L275.428 113.144C273.462 110.993 271.517 108.822 269.593 106.633C265.093 101.516 260.258 96.081 255.375 90.987C250.265 85.657 245.335 81.151 240.301 77.215C239.703 76.748 239.101 76.29 238.496 75.839C238.435 75.793 238.375 75.745 238.313 75.701C238.189 75.608 238.063 75.521 237.94 75.43C233.473 72.1444 228.725 69.2598 223.75 66.81L223.648 66.761C217.911 63.98 211.668 61.759 205.092 60.16C198.859 58.643 192.234 57.558 184.836 56.842C177.508 56.132 170.023 55.698 163.583 55.346C154.937 54.873 148.398 54.316 142.376 53.539C135.581 52.6583 128.871 51.2157 122.314 49.226L122.274 49.21L122.237 49.197C122.162 49.166 122.087 49.133 122.011 49.103C116.037 46.736 110.389 44.083 104.159 41.111L46.874 13.317H46.8729ZM55.035 7.81L48.792 12.021L105.028 39.307C111.274 42.289 116.937 44.952 122.934 47.321C129.372 49.273 135.96 50.6885 142.632 51.553C148.572 52.32 155.068 52.874 163.692 53.346C171.676 53.782 178.359 54.204 185.028 54.848C192.518 55.572 199.235 56.673 205.563 58.213C212.275 59.845 218.653 62.115 224.519 64.959C224.583 64.989 224.646 65.019 224.71 65.051C230.512 67.881 236.17 71.441 241.532 75.637C246.652 79.643 251.652 84.21 256.818 89.6C261.736 94.732 266.586 100.181 271.095 105.308C276.749 111.739 281.155 116.465 285.376 120.633C290.127 125.318 295.247 129.614 300.686 133.478C306.34 136.841 312.222 139.791 317.756 142.521L374.551 170.077L374.027 162.577L320.597 136.655L320.596 136.654C315.297 134.056 309.155 131.004 303.266 127.624C297.655 123.87 292.341 119.69 287.371 115.122C282.993 111.089 278.454 106.542 272.654 100.386C268.04 95.489 263.086 90.286 258.108 85.409C252.903 80.311 247.888 75.97 242.775 72.139C242.672 72.062 242.569 71.989 242.467 71.913C237.295 68.0789 231.787 64.7186 226.012 61.873L225.906 61.824C221.523 59.7162 216.994 57.9262 212.354 56.468C210.758 55.964 209.15 55.4972 207.532 55.068C201.344 53.425 194.797 52.171 187.518 51.234C187.118 51.182 186.715 51.134 186.313 51.084C185.867 51.029 185.42 50.972 184.973 50.918L183.965 50.8C183.41 50.735 182.855 50.67 182.3 50.607L181.447 50.513C180.85 50.447 180.254 50.381 179.66 50.318L178.676 50.214C178.158 50.161 177.641 50.106 177.125 50.055L175.633 49.906L174.661 49.809C173.838 49.73 173.016 49.6516 172.193 49.574C170.327 49.3991 168.46 49.2291 166.593 49.064C158.083 48.306 151.648 47.534 145.723 46.561C139.015 45.4502 132.404 43.8148 125.952 41.67H125.951L125.885 41.645C122.852 40.3885 119.844 39.0706 116.864 37.692L116.848 37.684C113.845 36.2945 110.852 34.8814 107.871 33.445L55.035 7.81V7.81ZM63.197 2.303L56.955 6.513L108.745 31.642C111.656 33.042 114.542 34.418 117.433 35.752L117.745 35.896C119.18 36.556 120.618 37.204 122.059 37.839L122.169 37.887C123.643 38.534 125.124 39.167 126.614 39.782C132.956 41.8873 139.453 43.4936 146.045 44.586C151.92 45.551 158.311 46.317 166.768 47.071C168.578 47.2336 170.388 47.3986 172.197 47.566L173.113 47.652C174.163 47.7522 175.213 47.8542 176.263 47.958C177.25 48.0567 178.236 48.1577 179.222 48.261L179.781 48.319C180.518 48.398 181.248 48.478 181.974 48.559L182.452 48.611C183.118 48.687 183.781 48.764 184.44 48.842L185.181 48.929C185.701 48.992 186.218 49.057 186.735 49.121L187.771 49.249C195.152 50.199 201.783 51.469 208.044 53.133C209.701 53.573 211.339 54.05 212.956 54.56C217.688 56.0467 222.307 57.8727 226.776 60.024L226.882 60.073H226.884C232.687 62.865 238.376 66.364 243.793 70.406C243.853 70.452 243.915 70.494 243.974 70.539C244.407 70.864 244.838 71.215 245.27 71.547C250.007 75.186 254.68 79.251 259.508 83.981C264.512 88.883 269.485 94.104 274.111 99.015C279.897 105.156 284.406 109.67 288.727 113.651C291.15 115.882 293.659 118.018 296.248 120.055C297.145 120.76 298.066 121.441 298.982 122.125C299.398 122.435 299.802 122.757 300.222 123.063C300.496 123.261 300.782 123.448 301.057 123.646C302.135 124.418 303.219 125.186 304.322 125.927C310.098 129.239 316.205 132.274 321.473 134.857L323.262 135.724L373.864 160.276L373.339 152.776L324.315 128.989C318.697 126.266 312.701 123.307 306.92 120.133C301.402 116.662 295.949 112.753 290.658 108.485C285.949 104.268 281.048 99.638 275.641 94.297C270.957 89.672 265.951 84.757 260.763 79.99C255.454 75.109 250.358 70.928 245.181 67.209C239.743 63.304 234.098 59.902 228.306 57.119C222.539 54.323 216.346 51.968 209.9 50.119C203.75 48.354 197.279 46.936 190.117 45.786C183.171 44.668 176.132 43.766 169.517 42.936C161.955 41.99 155.227 40.986 148.948 39.87C142.229 38.307 135.726 36.385 129.565 34.15C123.365 31.472 117.285 28.547 111.585 25.78L63.198 2.304L63.197 2.303ZM380.613 228.152L379.172 229.124L369.092 235.924H369.089L362.839 240.138L362.843 240.139L353.987 246.112L344.595 252.448L297.123 229.416L296.189 228.96C290.712 226.28 285.219 223.595 279.722 220.889C274.916 218.522 268.598 215.381 262.338 212.057C256.149 208.749 250.638 205.367 245.487 201.72C240.207 197.975 234.912 193.68 229.751 188.954C224.95 184.552 220.336 179.964 214.884 174.429C209.184 168.635 204.416 164.187 199.877 160.429C194.589 156.053 189.09 152.459 183.527 149.747L183.397 149.684C177.787 146.965 171.503 144.848 164.72 143.391C158.97 142.155 152.491 141.157 144.333 140.251C137.663 139.51 130.535 138.667 123.583 137.522C116.625 136.367 109.921 134.836 103.656 132.971C97.55 131.14 91.426 128.859 84.933 125.995H84.931C80.11 123.857 75.259 121.601 70.568 119.421L66.981 117.755L3.09692 86.759L2.25 74.658L2.26099 74.663L1.73596 67.158L1.72595 67.153L0.881958 55.053L0.891968 55.057L0.365967 47.565L0.349976 47.557L0 42.517L5.87903 38.549L5.88599 38.553L12.142 34.335L12.136 34.332L22.2159 27.528L22.223 27.531L28.47 23.317L28.462 23.313L38.543 16.514L38.549 16.517L44.7949 12.306H44.7939L52.954 6.801L52.953 6.8L63.033 0L112.458 23.981C118.138 26.738 124.195 29.652 130.302 32.291C136.332 34.479 142.761 36.378 149.35 37.912C155.543 39.012 162.238 40.009 169.767 40.952C176.399 41.783 183.456 42.689 190.435 43.812C197.677 44.975 204.225 46.408 210.451 48.196C217.007 50.078 223.308 52.474 229.178 55.32L229.445 55.448C235.216 58.263 240.901 61.672 246.347 65.585C251.59 69.351 256.748 73.581 262.117 78.518C267.329 83.308 272.35 88.236 277.046 92.874C282.431 98.192 287.308 102.8 291.953 106.963C297.143 111.148 302.533 115.01 307.933 118.41C313.625 121.533 319.59 124.474 325.188 127.19L375.254 151.482L375.939 161.282L375.941 161.283L376.788 173.384L377.474 183.187L377.471 183.185L377.996 190.685L377.999 190.686L378.683 200.481H378.684L379.369 210.285L379.372 210.287L380.218 222.387L380.21 222.383L380.613 228.152V228.152Z" fill="#E0E0E0"/>
</svg>
