<svg width="381" height="253" viewBox="0 0 381 253" fill="none" xmlns="http://www.w3.org/2000/svg">
<path fill-rule="evenodd" clip-rule="evenodd" d="M19.853 239.128L13.6051 234.916L72.3351 206.42C78.1385 203.583 83.9368 200.736 89.7301 197.879C95.3161 195.113 101.27 192.078 106.969 188.625C112.728 185.111 118.087 180.98 122.951 176.306C127.598 171.838 132.235 166.606 137.129 160.316C139.966 156.67 142.811 152.883 145.564 149.22C147.189 147.053 148.821 144.89 150.458 142.732C155.371 136.265 159.935 131.006 164.408 126.652C166.134 124.973 167.944 123.383 169.833 121.89C169.957 121.793 170.078 121.69 170.202 121.593C170.384 121.451 170.568 121.322 170.751 121.183C173.152 119.346 175.689 117.694 178.341 116.243C178.756 116.019 179.174 115.811 179.591 115.599C179.847 115.469 180.101 115.33 180.358 115.205L180.442 115.164C186.035 112.451 192.424 110.608 199.429 109.684C201.866 109.366 204.313 109.127 206.765 108.967C207.169 108.942 207.587 108.923 207.997 108.898C208.457 108.872 208.91 108.842 209.379 108.82C209.822 108.8 210.28 108.786 210.732 108.77C211.182 108.752 211.627 108.731 212.087 108.718C212.589 108.704 213.108 108.696 213.621 108.686C214.045 108.678 214.461 108.666 214.891 108.659C215.39 108.654 215.908 108.655 216.417 108.652C216.877 108.652 217.328 108.645 217.797 108.647C218.783 108.65 219.786 108.659 220.807 108.677C221.09 108.683 221.375 108.69 221.657 108.694C223.925 108.737 226.195 108.784 228.467 108.836C233.219 108.94 238.13 109.049 242.928 109.071H243.041C243.461 109.073 243.868 109.069 244.282 109.068C247.833 109.062 251.198 108.968 254.394 108.769C255.041 108.729 255.675 108.682 256.308 108.634C256.548 108.616 256.794 108.602 257.032 108.583C259.639 108.373 262.141 108.093 264.559 107.746C271.303 106.768 277.92 105.056 284.292 102.641C290.197 100.391 295.819 97.829 302.445 94.676C308.351 91.8554 314.252 89.0254 320.148 86.186L377.495 58.361L376.971 65.859L321.245 92.889C315.935 95.441 310.625 97.996 305.299 100.535C299.645 103.23 293.556 106.07 287.344 108.577C281.072 111.087 274.671 112.986 268.323 114.222C261.993 115.444 255.203 116.173 247.561 116.452C241.583 116.666 235.409 116.71 229.44 116.752L225.725 116.78C217.462 116.847 210.442 117.32 204.265 118.23C197.102 119.28 190.538 121.238 184.754 124.044L184.645 124.097C178.902 126.898 173.348 130.814 168.135 135.738C163.612 140.011 158.919 145.203 153.787 151.611L151.265 154.766C147.637 159.306 143.887 164.003 140.132 168.449C135.236 174.249 130.517 179.107 125.707 183.305C123.256 185.435 120.706 187.446 118.063 189.333C115.877 190.893 113.599 192.363 111.271 193.772C110.755 194.084 110.254 194.412 109.731 194.716C104.011 198.023 98.0961 201.014 92.5581 203.752C87.0271 206.482 81.498 209.19 75.984 211.89L75.1741 212.288L70.8181 214.401L19.853 239.128ZM28.0131 244.635L21.7661 240.424L76.0481 214.087L76.052 214.085L76.8671 213.685C82.3831 210.983 87.912 208.275 93.447 205.544C98.991 202.805 104.922 199.807 110.739 196.444C111.103 196.232 111.459 196.012 111.821 195.797C114.355 194.284 116.827 192.67 119.231 190.957C121.926 189.034 124.527 186.984 127.025 184.812C131.915 180.542 136.702 175.612 141.663 169.739C145.433 165.275 149.19 160.571 152.822 156.024L155.352 152.859C160.415 146.535 165.046 141.41 169.511 137.189C170.14 136.595 170.779 136.012 171.427 135.439C175.792 131.589 180.377 128.467 185.087 126.119C185.267 126.029 185.445 125.931 185.625 125.844C191.225 123.129 197.593 121.234 204.553 120.21C210.638 119.315 217.568 118.848 225.739 118.781L229.404 118.755C235.404 118.712 241.607 118.668 247.63 118.451C255.375 118.171 262.267 117.431 268.7 116.187C275.176 114.926 281.697 112.99 288.086 110.434C289.65 109.802 291.207 109.151 292.756 108.482C297.217 106.56 301.558 104.529 305.682 102.566C305.838 102.492 306.002 102.416 306.157 102.341C311.36 99.859 316.55 97.365 321.734 94.874L322.198 94.65C322.526 94.492 322.856 94.335 323.182 94.176L323.911 93.826L329.731 91.004L329.861 90.94L353.571 79.436L376.8 68.164L376.276 75.664L341.035 92.764L326.226 99.947L321.116 102.405C318.679 103.575 316.239 104.747 313.798 105.916C312.206 106.678 310.614 107.444 309.021 108.204C303.411 110.88 297.359 113.723 291.108 116.374C284.761 119.056 278.63 121.114 272.367 122.667C266.069 124.215 259.265 125.341 252.144 126.009C245.049 126.675 237.828 127.045 230.843 127.403C222.515 127.833 215.814 128.525 209.755 129.584C202.691 130.82 196.18 132.866 190.404 135.664L190.271 135.729C184.543 138.523 178.961 142.337 173.674 147.069C169.089 151.173 164.42 155.983 158.981 162.207C154.379 167.473 149.621 172.92 144.823 177.981C139.936 183.134 134.9 187.761 129.853 191.729C124.889 195.619 119.399 199.246 113.536 202.505C113.244 202.666 112.951 202.825 112.659 202.985C110.951 203.919 109.234 204.837 107.509 205.74C107.111 205.95 106.712 206.156 106.314 206.363C104.998 207.045 103.679 207.721 102.357 208.39C100.336 209.41 98.311 210.42 96.281 211.421C90.482 214.281 84.688 217.115 78.911 219.942L28.0131 244.635ZM36.181 250.145L29.9341 245.932L79.7721 221.751C85.5763 218.916 91.3755 216.071 97.17 213.216C99.2072 212.211 101.239 211.196 103.266 210.171L103.499 210.053C104.752 209.418 106.003 208.778 107.25 208.131L108.438 207.511C110.175 206.604 111.903 205.679 113.622 204.738C113.918 204.576 114.213 204.422 114.51 204.258C120.47 200.943 126.05 197.258 131.093 193.304C136.214 189.276 141.323 184.585 146.277 179.359C151.104 174.269 155.876 168.807 160.491 163.525C165.874 157.364 170.488 152.61 175.011 148.562C180.202 143.918 185.703 140.172 191.279 137.467C196.889 134.749 203.222 132.761 210.102 131.557C216.083 130.511 222.708 129.827 230.95 129.404C237.965 129.044 245.22 128.671 252.335 128.002C259.56 127.325 266.462 126.183 272.85 124.611C279.212 123.035 285.441 120.944 291.892 118.219C298.211 115.537 304.275 112.689 309.886 110.012C315.262 107.444 320.624 104.865 325.981 102.289L327.63 101.495L376.124 77.965L375.6 85.465L312.773 115.948L309.201 117.607C304.518 119.783 299.675 122.035 294.87 124.167C288.454 126.996 282.407 129.248 276.384 131.054C270.2 132.896 263.577 134.408 256.702 135.55C249.799 136.686 242.7 137.525 236.058 138.263C227.83 139.177 221.29 140.185 215.472 141.435C208.532 142.926 202.096 145.095 196.342 147.884L196.208 147.949C190.503 150.732 184.87 154.412 179.46 158.889C174.867 162.691 170.05 167.184 164.302 173.026C158.872 178.538 154.28 183.106 149.511 187.479C144.411 192.149 139.181 196.391 133.969 200.089C128.886 203.686 123.446 207.025 117.334 210.292C111.1 213.602 104.798 216.734 100.006 219.095C94.5111 221.8 89.0201 224.485 83.5441 227.163L82.614 227.618L36.181 250.145ZM316.481 78.505L378.17 48.572L377.648 56.058L319.313 84.362C313.409 87.2093 307.499 90.045 301.583 92.869C294.985 96.011 289.399 98.555 283.579 100.771C277.343 103.134 270.868 104.809 264.269 105.766C257.922 106.68 250.98 107.106 243.049 107.071C242.732 107.071 242.409 107.063 242.092 107.061C239.992 107.047 237.879 107.024 235.762 106.986C234.999 106.972 234.249 106.954 233.487 106.938C231.806 106.904 230.12 106.871 228.467 106.834C225.923 106.778 223.38 106.721 220.843 106.678C212.563 106.534 205.471 106.868 199.164 107.702C191.947 108.652 185.353 110.558 179.564 113.365L179.452 113.42C173.706 116.222 168.174 120.19 163.011 125.218C158.464 129.642 153.837 134.975 148.862 141.522C147.246 143.648 145.639 145.788 144.032 147.927C141.26 151.613 138.396 155.424 135.547 159.088C130.707 165.311 126.132 170.471 121.562 174.865C116.802 179.437 111.56 183.478 105.926 186.916C100.283 190.338 94.3791 193.346 88.8391 196.086C83.0565 198.938 77.2688 201.78 71.4761 204.611L11.6851 233.622L5.44409 229.412L68.619 198.761L69.4331 198.363C74.9491 195.661 80.479 192.953 86.015 190.223C91.595 187.465 97.538 184.418 103.208 180.823C108.826 177.236 114.109 172.889 118.912 167.899C123.375 163.261 127.905 157.819 132.758 151.263C134.785 148.518 136.8 145.764 138.803 143.002C141.15 139.762 143.516 136.535 145.9 133.322C150.708 126.862 155.25 121.565 159.786 117.128C164.791 112.231 170.143 108.378 175.694 105.67L175.803 105.617C181.396 102.904 187.788 101.069 194.801 100.162C201.096 99.347 208.108 99.058 216.235 99.279C220.083 99.381 223.949 99.527 227.815 99.672C231.425 99.808 235.039 99.944 238.633 100.046C246.853 100.278 253.991 100.062 260.459 99.386C267.374 98.661 274.116 97.142 280.499 94.87C286.413 92.737 292.062 90.187 298.725 87.014H298.726C303.333 84.816 307.929 82.609 312.523 80.404L316.481 78.504V78.505ZM374.571 40.852L378.539 43.528L378.349 46.25L314.782 77.088C309.152 79.796 303.512 82.508 297.859 85.205C291.271 88.345 285.682 90.868 279.817 92.983C273.597 95.2 267.011 96.683 260.244 97.393C253.866 98.06 246.814 98.273 238.684 98.043C235.096 97.941 231.49 97.807 227.884 97.671C224.01 97.525 220.137 97.379 216.283 97.275C208.051 97.053 200.937 97.347 194.539 98.176C187.316 99.109 180.717 101.006 174.924 103.813L174.825 103.861C169.075 106.666 163.544 110.647 158.381 115.695C153.776 120.199 149.167 125.574 144.288 132.125C141.904 135.325 139.508 138.621 137.188 141.809C135.178 144.573 133.168 147.339 131.144 150.071C126.335 156.564 121.862 161.941 117.464 166.509C112.771 171.385 107.61 175.632 102.127 179.132C96.5671 182.659 90.6681 185.683 85.123 188.426C79.3311 191.278 73.5355 194.123 67.7361 196.96L3.52002 228.115L2.07507 227.14L2.47803 221.383L64.9031 191.095L66.3101 190.406C71.6301 187.804 76.9651 185.196 82.3 182.563C87.9181 179.789 93.8831 176.717 99.4551 173.041C104.897 169.423 110.105 164.918 114.936 159.651C119.245 154.95 123.716 149.397 128.6 142.673C129.869 140.926 131.134 139.173 132.4 137.418C135.433 133.212 138.57 128.864 141.706 124.688C146.496 118.306 151.059 113.054 155.656 108.632C160.687 103.794 166.055 99.967 171.612 97.257L171.724 97.202C177.325 94.486 183.706 92.621 190.687 91.66C197.031 90.788 204.019 90.454 212.053 90.641C217.135 90.761 222.355 90.976 227.403 91.186C229.759 91.284 232.115 91.381 234.467 91.47C242.833 91.784 250.024 91.687 256.452 91.173C263.629 90.6 270.449 89.235 276.724 87.114C283.323 84.866 289.628 81.932 295.018 79.359C299.915 77.02 304.798 74.672 309.675 72.325L312.761 70.841L374.571 40.852ZM366.393 35.346L372.639 39.558L309.103 70.375C304.121 72.7736 299.137 75.1659 294.149 77.552H294.15C288.81 80.101 282.567 83.005 276.072 85.217C269.957 87.285 263.299 88.617 256.285 89.178C249.934 89.686 242.819 89.782 234.535 89.468C232.189 89.38 229.839 89.283 227.49 89.186C222.43 88.976 217.196 88.758 212.09 88.639C203.947 88.449 196.854 88.789 190.407 89.675C183.217 90.666 176.635 92.592 170.843 95.4L170.719 95.46C164.973 98.263 159.437 102.207 154.262 107.187C149.591 111.682 144.958 117.013 140.099 123.482C136.955 127.67 133.816 132.021 130.783 136.228C129.513 137.987 128.244 139.745 126.973 141.495C122.137 148.152 117.715 153.648 113.455 158.295C108.735 163.445 103.649 167.845 98.342 171.372C92.856 174.992 86.9621 178.026 81.4081 180.766C75.6225 183.615 69.8325 186.454 64.0381 189.285L2.63306 219.079L3.15601 211.58L61.176 183.43C66.981 180.597 72.782 177.755 78.5791 174.906C85.1191 171.686 90.533 168.82 95.703 165.292C101.019 161.652 106.181 157.056 111.047 151.632C111.29 151.36 111.536 151.078 111.779 150.802C115.805 146.254 119.923 141.076 124.668 134.586L126.416 132.192C130.139 127.092 133.988 121.821 137.861 116.809C142.667 110.591 147.281 105.444 151.965 101.076C157.025 96.357 162.419 92.585 168.004 89.861L168.124 89.802C173.752 87.075 180.109 85.154 187.023 84.092C193.38 83.118 200.316 82.68 208.228 82.756C214.431 82.816 220.824 83.044 227.006 83.264L230.537 83.389C239.125 83.687 246.119 83.619 252.55 83.178C259.873 82.674 266.736 81.401 272.952 79.394C279.502 77.26 285.605 74.424 291.292 71.704C297.21 68.8706 303.123 66.0283 309.032 63.177L366.392 35.346H366.393ZM358.237 29.833L364.481 34.047L308.166 61.372C302.266 64.216 296.357 67.062 290.433 69.896C284.803 72.589 278.769 75.394 272.337 77.488C266.273 79.445 259.571 80.687 252.416 81.178C246.035 81.617 239.106 81.684 230.61 81.387L227.08 81.262C220.885 81.041 214.478 80.812 208.25 80.752C200.228 80.676 193.187 81.121 186.722 82.112C179.612 83.205 173.062 85.185 167.254 87.999L167.13 88.059C161.37 90.869 155.809 94.755 150.604 99.61C145.836 104.054 141.151 109.28 136.281 115.583L136.278 115.586C132.387 120.62 128.53 125.905 124.799 131.016L123.051 133.408C118.292 139.916 114.17 145.094 110.134 149.642C109.944 149.858 109.752 150.079 109.561 150.292C104.81 155.59 99.769 160.08 94.576 163.637C89.5041 167.099 84.16 169.927 77.697 173.109C71.888 175.967 66.0871 178.802 60.3031 181.629L3.32007 209.276L3.84412 201.782L57.4601 175.767L58.4921 175.263C63.9531 172.599 69.4112 169.929 74.8661 167.253C80.1821 164.643 86.3271 161.529 91.9821 157.599C97.2321 153.951 102.38 149.336 107.287 143.879C111.487 139.205 115.836 133.842 120.973 126.999C125.303 121.232 129.781 115.269 134.35 109.609C139.2 103.599 143.883 98.596 148.668 94.31C153.814 89.7 159.326 85.96 164.944 83.234C170.6 80.492 176.932 78.499 183.76 77.31C190.112 76.205 196.979 75.624 204.752 75.536C211.842 75.454 219.176 75.616 226.27 75.773L226.866 75.786C235.499 75.979 242.466 75.863 248.792 75.422C256.188 74.906 263.061 73.656 269.219 71.705C275.839 69.61 282.088 66.685 287.602 64.104L358.237 29.834V29.833ZM350.065 24.329L356.311 28.539L286.743 62.294C281.29 64.844 275.095 67.744 268.615 69.795C262.596 71.699 255.88 72.92 248.654 73.423C242.39 73.859 235.481 73.973 226.91 73.783L226.314 73.77C219.204 73.613 211.854 73.45 204.729 73.532C196.848 73.622 189.876 74.212 183.417 75.335C176.405 76.556 169.897 78.607 164.071 81.429C158.284 84.262 152.618 88.081 147.333 92.816C142.468 97.173 137.712 102.254 132.795 108.349C128.233 113.996 123.738 119.981 119.391 125.77C114.257 132.608 109.943 137.927 105.8 142.535C100.993 147.883 95.9591 152.396 90.8411 155.951C85.3111 159.795 79.241 162.871 73.984 165.454C68.176 168.305 62.3741 171.137 56.5901 173.961L4.005 199.475L4.53003 191.979L71.17 159.648C77.3661 156.549 82.922 153.688 88.28 149.976C93.497 146.363 98.665 141.791 103.639 136.386C105.144 134.745 106.623 133.08 108.073 131.391C110.871 128.139 113.859 124.481 117.203 120.219C117.299 120.095 117.391 119.981 117.488 119.858C117.593 119.722 117.704 119.582 117.81 119.448C118.819 118.159 119.824 116.876 120.83 115.602C121.6 114.627 122.386 113.645 123.169 112.663C123.501 112.247 123.832 111.826 124.165 111.411C126.439 108.568 128.754 105.758 131.109 102.981C136.033 97.194 140.795 92.354 145.669 88.178C150.866 83.727 156.359 80.096 162.073 77.313C167.756 74.559 174.056 72.488 180.799 71.161C187.117 69.915 193.905 69.173 201.551 68.887C208.659 68.622 215.947 68.614 223.411 68.628C232.086 68.645 238.998 68.42 245.163 67.921C252.544 67.324 259.393 66.034 265.519 64.084C272.126 61.982 278.373 59.038 283.885 56.441L350.065 24.329ZM341.91 18.819L348.153 23.029L283.027 54.629C277.585 57.196 271.407 60.109 264.917 62.175C258.938 64.076 252.238 65.338 245.003 65.923C238.894 66.418 232.036 66.64 223.418 66.624C215.932 66.609 208.623 66.618 201.48 66.886C193.723 67.174 186.834 67.929 180.416 69.193C173.506 70.556 167.041 72.68 161.203 75.51L161.053 75.582C155.267 78.405 149.655 82.13 144.371 86.656C139.414 90.901 134.578 95.816 129.588 101.681C128.971 102.407 128.358 103.154 127.741 103.891C123.723 108.705 119.793 113.671 116.081 118.411L115.915 118.621C115.812 118.752 115.713 118.875 115.612 119.007C113.156 122.146 110.646 125.242 108.083 128.294C106.16 130.581 104.189 132.826 102.169 135.027C97.2981 140.322 92.243 144.797 87.145 148.329C81.904 151.959 76.4101 154.788 70.2891 157.85L4.69312 189.675L5.21704 182.178L67.451 151.985C73.4051 149.027 79.1901 146.073 84.6001 142.412C89.8961 138.829 94.965 134.483 100.098 129.129C104.306 124.736 108.65 119.791 114.183 113.095C119.288 106.917 123.606 101.782 128.09 96.809C133.101 91.251 137.949 86.578 142.907 82.522C148.109 78.265 153.615 74.707 159.277 71.945L159.437 71.867C165.155 69.097 171.426 66.949 178.077 65.485C184.354 64.1 191.062 63.186 198.58 62.69C205.942 62.204 213.573 61.995 220.146 61.837C228.89 61.627 235.522 61.256 241.652 60.637C249.09 59.885 255.7 58.534 261.857 56.507C268.403 54.35 274.654 51.387 280.168 48.775L341.91 18.819ZM333.74 13.317L339.983 17.527L279.308 46.965C273.86 49.549 267.677 52.481 261.233 54.604C255.211 56.586 248.741 57.908 241.453 58.644C235.398 59.256 228.813 59.624 220.101 59.834C213.495 59.993 205.831 60.202 198.451 60.691C190.831 61.193 184.027 62.121 177.65 63.527C170.844 65.027 164.425 67.226 158.568 70.064L158.403 70.144C152.601 72.974 146.963 76.616 141.643 80.97C136.606 85.091 131.688 89.833 126.607 95.466C124.592 97.7033 122.608 99.9679 120.655 102.259C120.389 102.569 120.125 102.874 119.859 103.188C119.749 103.317 119.638 103.45 119.528 103.578C117.215 106.309 114.92 109.056 112.643 111.818C107.143 118.475 102.828 123.386 98.656 127.741C93.703 132.909 88.597 137.287 83.4821 140.752C78.1861 144.338 72.462 147.26 66.572 150.186L5.3761 179.876L5.901 172.38L63.733 144.32C69.31 141.57 75.2331 138.6 81.0161 135.154C86.5701 131.219 91.7952 126.839 96.64 122.058C98.9041 119.818 101.121 117.531 103.288 115.198C103.55 114.918 103.823 114.619 104.09 114.331C104.423 113.971 104.75 113.619 105.093 113.246L105.185 113.144C107.151 110.993 109.096 108.822 111.02 106.633C115.52 101.516 120.355 96.081 125.238 90.987C130.348 85.657 135.278 81.151 140.312 77.215C140.91 76.748 141.512 76.29 142.117 75.839C142.178 75.793 142.238 75.745 142.3 75.701C142.424 75.608 142.55 75.521 142.673 75.43C147.14 72.1444 151.888 69.2598 156.863 66.81L156.965 66.761C162.702 63.98 168.945 61.759 175.521 60.16C181.754 58.643 188.379 57.558 195.777 56.842C203.105 56.132 210.59 55.698 217.03 55.346C225.676 54.873 232.215 54.316 238.237 53.539C245.032 52.6583 251.742 51.2157 258.299 49.226L258.339 49.21L258.376 49.197C258.451 49.166 258.526 49.133 258.602 49.103C264.576 46.736 270.224 44.083 276.454 41.111L333.739 13.317H333.74ZM325.578 7.81L331.821 12.021L275.585 39.307C269.339 42.289 263.676 44.952 257.679 47.321C251.241 49.273 244.653 50.6885 237.981 51.553C232.041 52.32 225.545 52.874 216.921 53.346C208.937 53.782 202.254 54.204 195.585 54.848C188.095 55.572 181.378 56.673 175.05 58.213C168.338 59.845 161.96 62.115 156.094 64.959C156.03 64.989 155.967 65.019 155.903 65.051C150.101 67.881 144.443 71.441 139.081 75.637C133.961 79.643 128.961 84.21 123.795 89.6C118.877 94.732 114.027 100.181 109.518 105.308C103.864 111.739 99.4581 116.465 95.2371 120.633C90.4864 125.318 85.3665 129.614 79.927 133.478C74.273 136.841 68.3911 139.791 62.8571 142.521L6.06201 170.077L6.58606 162.577L60.0161 136.655L60.0171 136.654C65.3161 134.056 71.458 131.004 77.347 127.624C82.9577 123.87 88.2717 119.69 93.2421 115.122C97.6201 111.089 102.159 106.542 107.959 100.386C112.573 95.489 117.527 90.286 122.505 85.409C127.71 80.311 132.725 75.97 137.838 72.139C137.941 72.062 138.044 71.989 138.146 71.913C143.318 68.0788 148.826 64.7186 154.601 61.873L154.707 61.824C159.09 59.7162 163.619 57.9262 168.259 56.468C169.855 55.964 171.463 55.4972 173.081 55.068C179.269 53.425 185.816 52.171 193.095 51.234C193.495 51.182 193.898 51.134 194.3 51.084C194.746 51.029 195.193 50.972 195.64 50.918L196.648 50.8C197.203 50.735 197.758 50.67 198.313 50.607L199.166 50.513C199.763 50.447 200.359 50.381 200.953 50.318L201.937 50.214C202.455 50.161 202.972 50.106 203.488 50.055L204.98 49.906L205.952 49.809C206.775 49.73 207.597 49.6516 208.42 49.574C210.286 49.3991 212.153 49.2291 214.02 49.064C222.53 48.306 228.965 47.534 234.89 46.561C241.598 45.4502 248.209 43.8148 254.661 41.67H254.662L254.728 41.645C257.761 40.3885 260.769 39.0706 263.749 37.692L263.765 37.684C266.768 36.2945 269.761 34.8815 272.742 33.445L325.578 7.81ZM317.416 2.303L323.658 6.513L271.868 31.642C268.957 33.042 266.071 34.418 263.18 35.752L262.868 35.896C261.433 36.556 259.995 37.204 258.554 37.839L258.444 37.887C256.97 38.534 255.489 39.167 253.999 39.782C247.657 41.8873 241.16 43.4936 234.568 44.586C228.693 45.551 222.302 46.317 213.845 47.071C212.035 47.2336 210.225 47.3986 208.416 47.566L207.5 47.652C206.45 47.7522 205.4 47.8542 204.35 47.958C203.364 48.0567 202.377 48.1577 201.391 48.261L200.832 48.319C200.095 48.398 199.365 48.478 198.639 48.559L198.161 48.611C197.495 48.687 196.832 48.764 196.173 48.842L195.432 48.929C194.912 48.992 194.395 49.057 193.878 49.121L192.842 49.249C185.461 50.199 178.83 51.469 172.569 53.133C170.912 53.573 169.274 54.05 167.657 54.56C162.925 56.0467 158.306 57.8727 153.837 60.024L153.731 60.073H153.729C147.926 62.865 142.237 66.364 136.82 70.406C136.76 70.452 136.698 70.494 136.639 70.539C136.206 70.864 135.775 71.215 135.343 71.547C130.606 75.186 125.933 79.251 121.105 83.981C116.101 88.883 111.128 94.104 106.502 99.015C100.716 105.156 96.2071 109.67 91.8861 113.651C89.463 115.882 86.9541 118.018 84.3651 120.055C83.4681 120.76 82.5471 121.441 81.6311 122.125C81.2151 122.435 80.8111 122.757 80.3911 123.063C80.1171 123.261 79.831 123.448 79.556 123.646C78.478 124.418 77.394 125.186 76.291 125.927C70.515 129.239 64.408 132.274 59.14 134.857L57.3511 135.724L6.74902 160.276L7.27405 152.776L56.2981 128.989C61.9161 126.266 67.9121 123.307 73.6931 120.133C79.2111 116.662 84.6641 112.753 89.9551 108.485C94.6641 104.268 99.565 99.638 104.972 94.297C109.656 89.672 114.662 84.757 119.85 79.99C125.159 75.109 130.255 70.928 135.432 67.209C140.87 63.304 146.515 59.902 152.307 57.119C158.074 54.323 164.267 51.968 170.713 50.119C176.863 48.354 183.334 46.936 190.496 45.786C197.442 44.668 204.481 43.766 211.096 42.936C218.658 41.99 225.386 40.986 231.665 39.87C238.384 38.307 244.887 36.385 251.048 34.15C257.248 31.472 263.328 28.547 269.028 25.78L317.415 2.304L317.416 2.303ZM0 228.152L1.44104 229.124L11.5211 235.924H11.524L17.774 240.138L17.77 240.139L26.6261 246.112L36.0181 252.448L83.4901 229.416L84.4241 228.96C89.9011 226.28 95.3941 223.595 100.891 220.889C105.697 218.522 112.015 215.381 118.275 212.057C124.464 208.749 129.975 205.367 135.126 201.72C140.406 197.975 145.701 193.68 150.862 188.954C155.663 184.552 160.277 179.964 165.729 174.429C171.429 168.635 176.197 164.187 180.736 160.429C186.024 156.053 191.523 152.459 197.086 149.747L197.216 149.684C202.826 146.965 209.11 144.848 215.893 143.391C221.643 142.155 228.122 141.157 236.28 140.251C242.95 139.51 250.078 138.667 257.03 137.522C263.988 136.367 270.692 134.836 276.957 132.971C283.063 131.14 289.187 128.859 295.68 125.995H295.682C300.503 123.857 305.354 121.601 310.045 119.421L313.632 117.755L377.516 86.759L378.363 74.658L378.352 74.663L378.877 67.158L378.887 67.153L379.731 55.053L379.721 55.057L380.247 47.565L380.263 47.557L380.613 42.517L374.734 38.549L374.727 38.553L368.471 34.335L368.477 34.332L358.397 27.528L358.39 27.531L352.143 23.317L352.151 23.313L342.07 16.514L342.064 16.517L335.818 12.306H335.819L327.659 6.801L327.66 6.8L317.58 0L268.155 23.981C262.475 26.738 256.418 29.652 250.311 32.291C244.281 34.479 237.852 36.378 231.263 37.912C225.07 39.012 218.375 40.009 210.846 40.952C204.214 41.783 197.157 42.689 190.178 43.812C182.936 44.975 176.388 46.408 170.162 48.196C163.606 50.078 157.305 52.474 151.435 55.32L151.168 55.448C145.397 58.263 139.712 61.672 134.266 65.585C129.023 69.351 123.865 73.581 118.496 78.518C113.284 83.308 108.263 88.236 103.567 92.874C98.182 98.192 93.305 102.8 88.66 106.963C83.47 111.148 78.08 115.01 72.6801 118.41C66.9881 121.533 61.023 124.474 55.425 127.19L5.35901 151.482L4.67407 161.282L4.67212 161.283L3.82507 173.384L3.13904 183.187L3.14209 183.185L2.61707 190.685L2.61401 190.686L1.93005 200.481H1.92908L1.24402 210.285L1.24109 210.287L0.39502 222.387L0.403076 222.383L0 228.152Z" fill="#25282C"/>
</svg>
